# xmcd
#
# Track frame offsets: 
#        150
#        14558
#        27345
#        42318
#        52070
#        66699
#        82396
#        96594
#        111708
#        126572
#        141692
#        155030
#        170149
#        182835
#        195543
#        209477
#        221945
#        237337
#        250625
#        264145
#
# Disc length: 3720 seconds
#
# Revision: 0
# Processed by: cddbd v1.5.2PL0 Copyright (c) Steve Scherf et al.
# Submitted via: ExactAudioCopy v0.90b4
#
DISCID=550e8614
DTITLE=Various Artist - Bugg 2011
DYEAR=2011
DGENRE=Dansband
TTITLE0=Streaplers - Jukeboxen
TTITLE1=Lasse Stefanz - Ge Mig Mera
TTITLE2=Blender - Ingen, Ingenting
TTITLE3=Christer Sjögren - I Need Your Love Tonight
TTITLE4=Mats Bergmans - Det Kommer Från Hjärtat
TTITLE5=Sven-Ingvars - Sanna Från Sunne
TTITLE6=Wizex - Du Är Allt För Mig
TTITLE7=Drifters - Trettifyran
TTITLE8=BlackJack - Tie A Yellow Ribbon 'round The Old Oak Tree
TTITLE9=Wahlströms - En Modig Man
TTITLE10=Scotts - Malena
TTITLE11=Tommys - Vad Som Än Sker
TTITLE12=Titanix - Nu Är Det Lördag Igen
TTITLE13=Agneta and Peter - Direkt Ifrån Hjärtat
TTITLE14=Vikingarna - Djingis Khan
TTITLE15=Danne Stråhed - La' Mej Vara Ung
TTITLE16=Lasse Stefanz - En Timme Försent
TTITLE17=Thor Görans - En På Miljonen
TTITLE18=Martinez - Hela Mitt Hjärta
TTITLE19=Ingmar Nordströms - See You Later Alligator
EXTD=
EXTT0=
EXTT1=
EXTT2=
EXTT3=
EXTT4=
EXTT5=
EXTT6=
EXTT7=
EXTT8=
EXTT9=
EXTT10=
EXTT11=
EXTT12=
EXTT13=
EXTT14=
EXTT15=
EXTT16=
EXTT17=
EXTT18=
EXTT19=
PLAYORDER=
